<?xml version="1.0" encoding="UTF-8"?>
<svg width="116px" height="21px" viewBox="0 0 116 21" version="1.1" xmlns="http://www.w3.org/2000/svg" xmlns:xlink="http://www.w3.org/1999/xlink">
    <!-- Generator: Sketch 59 (86127) - https://sketch.com -->
    <title>bi_logo</title>
    <desc>Created with Sketch.</desc>
    <g id="export" stroke="none" stroke-width="1" fill="none" fill-rule="evenodd">
        <g id="Artboard" transform="translate(0.000000, -25.000000)" fill="#FFFFFF" fill-rule="nonzero">
            <g id="bi_logo" transform="translate(0.000000, 25.000000)">
                <g id="Asset-1">
                    <path d="M9.5706,9.94 C11.3575001,9.38244602 12.5470618,7.69884613 12.4722,5.83333333 C12.4722,2.98666667 10.4247,1.16666667 6.7977,1.16666667 L0,1.16666667 L0,20.2766667 L6.8094,20.2766667 C10.3194,20.2766667 13.1274,18.4216667 13.1274,14.6766667 C13.1724234,12.4709451 11.7058378,10.5178618 9.5706,9.94 Z M1.8018,2.625 L6.7158,2.625 C9.3366,2.625 10.6002,4.06 10.6002,5.89166667 C10.6002,7.96833333 9.4302,9.19333333 6.2946,9.19333333 L1.8018,9.19333333 L1.8018,2.625 Z M6.7041,18.6666667 L1.8018,18.6666667 L1.8018,10.78 L6.1659,10.78 C9.6759,10.78 11.2437,12.355 11.2437,14.735 C11.2437,17.5 9.2664,18.6666667 6.7041,18.6666667 Z" id="Shape"></path>
                    <polygon id="Path" points="19.7613 10.9666667 29.2149 10.9666667 29.2149 9.345 19.7613 9.345 19.7613 2.67166667 29.8701 2.67166667 29.8701 1.05 17.9478 1.05 17.9478 20.2766667 29.8701 20.2766667 29.8701 18.655 19.7613 18.655"></polygon>
                    <polygon id="Path" points="105.7563 10.9666667 115.2099 10.9666667 115.2099 9.345 105.7563 9.345 105.7563 2.67166667 115.8651 2.67166667 115.8651 1.05 103.9428 1.05 103.9428 20.2766667 115.8651 20.2766667 115.8651 18.655 105.7563 18.655"></polygon>
                    <path d="M67.1346,1.05 L65.2743,1.05 L65.2743,12.8333333 C65.2743,17.3016667 63.297,18.8883333 60.0561,18.8883333 C57.1311,18.8883333 54.7911,17.3016667 54.7911,12.845 L54.7911,1.05 L52.9191,1.05 L52.9191,13.02 C52.9191,18.3983333 55.926,20.51 59.9976,20.51 C64.3266,20.51 67.1346,18.2933333 67.1346,12.81 L67.1346,1.05 Z" id="Path"></path>
                    <polygon id="Path" points="93.7755 2.67166667 100.0116 2.67166667 100.0116 1.05 85.7025 1.05 85.7025 2.67166667 91.9269 2.67166667 91.9269 20.2766667 93.7755 20.2766667"></polygon>
                    <path d="M79.677,4.585 L77.7933,0 L76.7286,2.765 L76.7286,2.765 C76.7286,2.765 76.7286,2.88166667 76.6584,2.95166667 L76.05,4.59666667 C74.3067,8.995 70.2,19.2733333 69.7788,20.5216667 L71.6508,20.5216667 L73.71,15.225 L74.1195,14.1516667 L81.666,14.1516667 C81.8298,14.6183333 82.017,15.085 82.1106,15.3183333 L82.1925,15.5283333 L84.1698,20.4866667 L86.1822,20.4866667 L79.677,4.585 Z M77.7699,4.27 L77.7699,4.27 C78.1443,5.43666667 79.1622,7.88666667 80.9991,12.495 L74.7279,12.495 C76.2138,8.575 77.2902,5.83333333 77.7699,4.27 Z" id="Shape"></path>
                    <path d="M43.1613,4.585 L41.2659,0 L40.2012,2.765 L40.2012,2.765 C40.1739554,2.82571645 40.1505104,2.88805816 40.131,2.95166667 L39.4992,4.59666667 C37.7793,8.995 33.7194,19.2733333 33.2514,20.5216667 L35.1,20.5216667 L37.1592,15.225 L37.557,14.1516667 L45.1152,14.1516667 L45.5715,15.3183333 C45.5715,15.435 45.6417,15.5166667 45.6534,15.5283333 L47.6307,20.4866667 L49.6314,20.4866667 L43.1613,4.585 Z M41.2542,4.27 L41.2542,4.27 C41.6286,5.43666667 42.6465,7.88666667 44.4717,12.495 L38.2005,12.495 C39.6981,8.575 40.7745,5.83333333 41.2542,4.27 Z" id="Shape"></path>
                </g>
            </g>
        </g>
    </g>
</svg>