<?xml version="1.0" encoding="UTF-8"?>
<svg width="183px" height="50px" viewBox="0 0 183 50" version="1.1" xmlns="http://www.w3.org/2000/svg" xmlns:xlink="http://www.w3.org/1999/xlink">
    <!-- Generator: Sketch 60 (88103) - https://sketch.com -->
    <title>tit_cont_singup</title>
    <desc>Created with Sketch.</desc>
    <g id="export" stroke="none" stroke-width="1" fill="none" fill-rule="evenodd">
        <g id="Artboard" transform="translate(-526.000000, -105.000000)" fill="#FFFFFF" fill-rule="nonzero">
            <path d="M539.868762,105.056433 C543.702403,105.056433 547.987061,106.185102 551.651571,108.273138 L551.651571,116.568849 L549.227357,116.568849 C548.832717,110.925508 544.942699,107.48307 539.530499,107.48307 C535.696858,107.48307 532.596118,109.853273 532.596118,112.844244 C532.596118,115.27088 533.892791,117.133183 540.714418,120.914221 C549.678373,125.880361 553.117375,129.097065 553.117375,134.232506 C553.117375,140.609481 547.085028,144.89842 539.023105,144.89842 C534.625693,144.89842 528.818854,143.600451 526,142.189616 L526,132.48307 L528.424214,132.48307 C529.720887,138.972912 533.159889,142.189616 538.853974,142.189616 C543.589649,142.189616 547.310536,139.255079 547.310536,135.869074 C547.310536,133.047404 544.886322,130.733634 538.628466,127.17833 C529.269871,121.873589 526.789279,119.164786 526.789279,114.593679 C526.789279,109.063205 532.088725,105.056433 539.868762,105.056433 Z M564.054529,105 C565.689464,105 567.098891,106.297968 567.098891,108.047404 C567.098891,109.683973 565.802218,111.094808 564.054529,111.094808 C562.306839,111.094808 561.010166,109.740406 561.010166,108.047404 C561.010166,106.297968 562.419593,105 564.054529,105 Z M557.627542,120.970655 L565.238447,118.205418 L566.647874,118.205418 L566.647874,137.844244 C566.647874,140.553047 567.944547,142.133183 570.143253,142.189616 L570.143253,144.221219 L557.85305,144.221219 L557.85305,142.189616 C560.502773,142.133183 561.9122,140.440181 561.9122,138.239278 L561.9122,124.413093 L557.627542,122.268623 L557.627542,120.970655 Z M579.896488,118.205418 L581.305915,118.205418 L581.305915,123.002257 L581.418669,123.002257 C583.504621,120.180587 587.112754,118.205418 590.439002,118.205418 C595.794824,118.205418 598.726433,121.083521 598.726433,126.783296 L598.726433,137.844244 C598.726433,140.722348 599.853974,141.907449 602.729205,142.189616 L602.729205,144.221219 L589.424214,144.221219 L589.424214,142.189616 C592.806839,142.189616 593.990758,140.440181 593.990758,137.731377 L593.990758,127.968397 C593.990758,124.525959 592.186691,121.986456 588.691312,121.986456 C586.04159,121.986456 583.730129,123.284424 581.305915,125.316027 L581.305915,137.674944 C581.305915,140.383747 582.320702,142.189616 585.872458,142.189616 L585.872458,144.221219 L572.398336,144.221219 L572.398336,142.189616 C575.386322,142.076749 576.57024,140.496614 576.57024,138.013544 L576.57024,124.300226 L572.792976,122.155756 L572.792976,120.857788 L579.896488,118.205418 Z M616.654344,118.205418 C621.277264,118.205418 623.250462,119.89842 629.28281,119.89842 C630.24122,119.89842 630.974122,119.785553 631.707024,119.72912 L631.707024,123.566591 C631.256007,123.679458 630.692237,123.679458 630.015712,123.679458 C628.719039,123.679458 627.478743,123.510158 626.294824,123.227991 C626.971349,124.920993 627.140481,125.823928 627.140481,127.404063 C627.140481,132.934537 621.671904,136.264108 616.823475,136.264108 C615.865065,136.264108 614.906654,136.151242 613.158965,135.812641 C611.749538,136.997743 611.467652,137.392777 611.467652,138.013544 C611.467652,139.424379 613.271719,139.76298 617.048983,139.76298 L621.728281,139.76298 C627.365989,139.76298 630.917745,142.076749 630.917745,145.688488 C630.917745,151.162528 624.603512,155 616.034196,155 C608.705176,155 605.15342,152.065463 605.15342,149.808126 C605.15342,148.227991 606.562847,146.478555 609.945471,143.939052 C607.859519,142.979684 606.731978,142.020316 606.731978,140.722348 C606.731978,139.367946 608.197782,137.61851 611.411275,134.96614 C608.310536,133.160271 606.788355,130.620767 606.788355,127.404063 C606.788355,122.21219 611.016636,118.205418 616.654344,118.205418 Z M611.749538,126.839729 C611.749538,131.072235 613.891867,134.119639 617.330869,134.119639 C620.544362,134.119639 622.179298,131.636569 622.179298,127.85553 C622.179298,123.227991 619.247689,120.632054 616.54159,120.632054 C613.891867,120.632054 611.749538,123.171558 611.749538,126.839729 Z M611.862292,144.390519 C609.832717,146.422122 609.212569,147.21219 609.212569,148.397291 C609.212569,151.049661 613.609982,152.121896 617.10536,152.121896 C621.897412,152.121896 627.253235,150.711061 627.253235,147.832957 C627.253235,145.688488 625.22366,144.841986 620.262477,144.841986 C614.568392,144.841986 613.666359,144.616253 611.862292,144.390519 Z M657.922366,118.826185 L657.922366,134.79684 C657.922366,138.690745 659.613678,140.835214 663.05268,140.835214 C665.75878,140.835214 667.788355,139.819413 670.212569,137.900677 L670.212569,126.106095 C670.212569,122.38149 669.42329,121.478555 665.871534,121.478555 L665.36414,121.478555 L665.36414,119.446953 L674.948244,118.826185 L674.948244,138.521445 C674.948244,140.383747 675.455638,141.286682 677.034196,141.286682 C677.654344,141.286682 678.5,141.117381 678.781885,141.060948 L678.781885,143.261851 L670.212569,144.841986 L670.212569,140.496614 C666.886322,143.600451 664.123845,144.841986 660.797597,144.841986 C655.892791,144.841986 653.186691,141.963883 653.186691,137.61851 L653.186691,126.670429 C653.186691,121.930023 652.284658,121.478555 648.676525,121.478555 L648.676525,119.446953 L657.922366,118.826185 Z M688.027726,118.205418 L689.437153,118.205418 L689.437153,122.437923 C692.368762,119.503386 695.187616,118.205418 698.626617,118.205418 C704.94085,118.205418 709,123.397291 709,130.1693 C709,138.182844 703.249538,144.841986 696.146026,144.841986 C693.834566,144.841986 691.748614,144.334086 689.437153,143.205418 L689.437153,148.397291 C689.437153,151.557562 690.564695,152.968397 694.229205,152.968397 L694.229205,155 L680.529575,155 L680.529575,152.968397 C683.404806,152.968397 684.701479,151.049661 684.701479,148.961625 L684.701479,124.413093 L680.698706,122.268623 L680.698706,120.970655 L688.027726,118.205418 Z M689.437153,124.751693 L689.437153,134.96614 C689.437153,139.311512 692.256007,142.41535 696.484288,142.41535 C701.389094,142.41535 704.264325,138.803612 704.264325,132.765237 C704.264325,126.049661 700.487061,122.155756 696.033272,122.155756 C694.060074,122.155756 691.861368,122.889391 689.437153,124.751693 Z" id="tit_cont_singup"></path>
        </g>
    </g>
</svg>