<?xml version="1.0" encoding="UTF-8"?>
<svg width="49px" height="11px" viewBox="0 0 49 11" version="1.1" xmlns="http://www.w3.org/2000/svg" xmlns:xlink="http://www.w3.org/1999/xlink">
    <!-- Generator: Sketch 60 (88103) - https://sketch.com -->
    <title>txt_mentor</title>
    <desc>Created with Sketch.</desc>
    <g id="export" stroke="none" stroke-width="1" fill="none" fill-rule="evenodd">
        <g id="Artboard" transform="translate(-709.000000, -277.000000)" fill="#000000" fill-rule="nonzero">
            <path d="M719.37,287.187 C720.118,287.187 721.087,286.269 721.903,284.773 L721.376,284.773 C720.849,285.674 720.288,286.269 720.016,286.269 C719.863,286.269 719.812,286.15 719.812,286.014 C719.812,285.827 719.897,285.589 719.948,285.436 L721.206,281.9 C721.478,281.135 721.546,280.727 721.546,280.404 C721.546,279.86 721.155,279.452 720.611,279.452 C719.302,279.452 718.01,281.101 716.072,284.433 L716.038,284.399 L717.024,281.492 C717.262,280.795 717.313,280.438 717.313,280.285 C717.313,279.792 716.956,279.452 716.429,279.452 C715.086,279.452 713.777,281.067 711.754,284.62 L711.72,284.586 L712.774,281.543 C712.995,280.914 713.08,280.421 713.08,280.149 C713.08,279.741 712.757,279.452 712.298,279.452 C711.38,279.452 710.581,280.149 709.85,281.577 L710.343,281.577 C710.87,280.625 711.329,280.132 711.703,280.132 C711.839,280.132 711.89,280.251 711.89,280.421 C711.89,280.54 711.771,281.033 711.737,281.118 L709.935,287 L711.125,287 C711.516,285.708 712.315,284.178 713.42,282.529 C714.542,280.88 715.392,280.064 715.851,280.064 C716.004,280.064 716.14,280.183 716.14,280.319 C716.14,280.489 715.953,281.101 715.936,281.169 L714.151,287 L715.341,287 C715.715,285.793 716.531,284.144 717.653,282.495 C718.775,280.846 719.625,280.064 720.084,280.064 C720.237,280.064 720.407,280.183 720.407,280.438 C720.407,280.744 720.339,280.931 720.186,281.39 L718.809,285.283 C718.656,285.725 718.571,286.048 718.571,286.303 C718.571,286.796 718.928,287.187 719.37,287.187 Z M724.760063,287.187 C726.001062,287.187 727.157063,286.32 728.058063,284.722 L727.514063,284.722 C726.919062,285.742 726.035062,286.269 725.304062,286.269 C724.403063,286.269 723.825063,285.589 723.825063,284.62 C723.825063,284.331 723.859063,284.059 723.910062,283.94 C725.270062,283.787 726.477062,283.277 727.344062,282.614 C727.990063,282.121 728.364063,281.39 728.364063,280.778 C728.364063,279.962 727.854063,279.452 727.072063,279.452 C726.324062,279.452 725.219062,280.03 724.182063,281.271 C723.145062,282.512 722.618062,283.94 722.618062,285.028 C722.618062,286.32 723.519063,287.187 724.760063,287.187 Z M724.046062,283.515 C724.760063,281.271 725.661062,280.115 726.494063,280.115 C727.021062,280.115 727.412063,280.523 727.412063,281.033 C727.412063,282.138 726.120063,283.226 724.046062,283.515 Z M734.536125,287.187 C735.250125,287.187 736.202125,286.269 737.137125,284.79 L736.593125,284.79 C736.066125,285.623 735.505125,286.269 735.182125,286.269 C735.029125,286.269 734.944125,286.218 734.944125,286.031 C734.944125,285.895 734.961125,285.776 735.046125,285.521 L736.151125,282.342 C736.338125,281.781 736.678125,281.033 736.678125,280.387 C736.678125,279.826 736.270125,279.452 735.607125,279.452 C734.349125,279.452 733.040125,280.846 731.289125,283.651 L731.255125,283.617 C732.037125,281.135 732.207125,280.795 732.207125,280.217 C732.207125,279.758 731.867125,279.452 731.408125,279.452 C730.541125,279.452 729.640125,280.251 729.028125,281.543 L729.504125,281.543 C729.980125,280.659 730.490125,280.115 730.830125,280.115 C730.966125,280.115 731.017125,280.2 731.017125,280.353 C731.017125,280.472 730.983125,280.608 730.898125,280.88 L729.028125,287 L730.218125,287 C730.643125,285.555 730.779125,285.317 731.170125,284.569 C731.476125,283.974 732.547125,282.291 733.550125,281.186 C734.128125,280.557 734.621125,280.064 735.114125,280.064 C735.335125,280.064 735.505125,280.2 735.505125,280.455 C735.505125,280.727 735.420125,280.965 735.301125,281.322 L733.941125,285.283 C733.856125,285.538 733.686125,285.997 733.686125,286.32 C733.686125,286.813 734.060125,287.187 734.536125,287.187 Z M739.178188,287.187 C740.130188,287.187 741.116188,286.473 742.085187,285.045 L741.541187,285.045 C740.810187,286.014 740.215187,286.507 739.756188,286.507 C739.552187,286.507 739.450187,286.354 739.450187,286.133 C739.450187,286.048 739.467188,285.929 739.535188,285.657 L741.048188,280.115 L742.510188,280.115 L742.646187,279.69 L741.184188,279.69 L741.711188,277.973 L741.286187,277.973 C740.555187,279.112 739.926187,279.503 738.600187,279.69 L738.464187,280.115 L739.858187,280.115 L738.396187,285.402 C738.379188,285.487 738.209187,285.946 738.209187,286.32 C738.209187,286.847 738.617188,287.187 739.178188,287.187 Z M744.82325,287.187 C747.13525,287.187 749.37925,284.178 749.37925,281.832 C749.37925,280.472 748.46125,279.452 747.20325,279.452 C744.92525,279.452 742.64725,282.325 742.64725,284.875 C742.64725,286.235 743.53125,287.187 744.82325,287.187 Z M745.31625,286.626 C744.50025,286.626 744.00725,285.963 744.00725,284.858 C744.00725,282.342 745.41825,280.013 746.71025,280.013 C747.52625,280.013 748.01925,280.778 748.01925,281.9 C748.01925,282.444 747.88325,283.43 747.52625,284.365 C747.10125,285.487 746.42125,286.626 745.31625,286.626 Z M751.964313,287 L752.423312,285.096 C752.610312,284.348 753.103313,283.056 753.664313,282.053 C754.225312,281.033 754.786313,280.37 755.041313,280.37 C755.211312,280.37 755.245312,280.489 755.245312,280.693 C755.245312,280.795 755.211312,280.914 755.211312,281.067 C755.211312,281.492 755.347313,281.645 755.653312,281.645 C756.044313,281.645 756.299313,281.135 756.299313,280.455 C756.299313,279.826 756.027312,279.452 755.568313,279.452 C754.735312,279.452 753.936312,280.574 752.831312,282.971 L752.797312,282.937 C753.205312,281.577 753.290313,280.948 753.290313,280.455 C753.290313,279.843 752.950312,279.452 752.440313,279.452 C751.692312,279.452 750.791313,280.251 750.094313,281.662 L750.570312,281.662 C751.029313,280.778 751.539313,280.234 751.913312,280.234 C752.100312,280.234 752.236312,280.404 752.236312,280.625 C752.236312,280.812 752.168312,281.203 752.015313,281.832 L750.774312,287 L751.964313,287 Z M756.521375,287.187 C757.048375,287.187 757.490375,286.745 757.490375,286.218 C757.490375,285.691 757.048375,285.249 756.521375,285.249 C755.994375,285.249 755.552375,285.691 755.552375,286.218 C755.552375,286.745 755.994375,287.187 756.521375,287.187 Z" id="/txt_mentor"></path>
        </g>
    </g>
</svg>