<?xml version="1.0" encoding="UTF-8"?>
<svg width="217px" height="32px" viewBox="0 0 217 32" version="1.1" xmlns="http://www.w3.org/2000/svg" xmlns:xlink="http://www.w3.org/1999/xlink">
    <!-- Generator: Sketch 59 (86127) - https://sketch.com -->
    <title>txt_off_tit_list</title>
    <desc>Created with Sketch.</desc>
    <g id="export" stroke="none" stroke-width="1" fill="none" fill-rule="evenodd">
        <g id="Artboard" transform="translate(0.000000, -197.000000)" fill="#000000">
            <g id="txt_off_tit_list" transform="translate(0.000000, 190.000000)">
                <g id="00.logo/#000" transform="translate(0.000000, 8.000000)">
                    <g id="Asset-1" transform="translate(0.000000, 5.833333)">
                        <path d="M11.1746724,11.5966667 C13.2610643,10.946187 14.6500015,8.98198715 14.5625926,6.80555556 C14.5625926,3.48444444 12.1719231,1.36111111 7.93702279,1.36111111 L2.66453526e-15,1.36111111 L2.66453526e-15,23.6561111 L7.95068376,23.6561111 C12.0489744,23.6561111 15.3276068,21.4919444 15.3276068,17.1227778 C15.3801763,14.549436 13.6677849,12.2708387 11.1746724,11.5966667 Z M2.10378917,3.0625 L7.84139601,3.0625 C10.901453,3.0625 12.3768376,4.73666667 12.3768376,6.87361111 C12.3768376,9.29638889 11.0107407,10.7255556 7.34960114,10.7255556 L2.10378917,10.7255556 L2.10378917,3.0625 Z M7.82773504,21.7777778 L2.10378917,21.7777778 L2.10378917,12.5766667 L7.19933048,12.5766667 C11.2976211,12.5766667 13.1281909,14.4141667 13.1281909,17.1908333 C13.1281909,20.4166667 10.8194872,21.7777778 7.82773504,21.7777778 Z" id="Shape" fill-rule="nonzero"></path>
                        <polygon id="Path" fill-rule="nonzero" points="23.0733761 12.7944444 34.1114387 12.7944444 34.1114387 10.9025 23.0733761 10.9025 23.0733761 3.11694444 34.876453 3.11694444 34.876453 1.225 20.9559259 1.225 20.9559259 23.6561111 34.876453 23.6561111 34.876453 21.7641667 23.0733761 21.7641667"></polygon>
                        <polygon id="Path" fill-rule="nonzero" points="123.481496 12.7944444 134.519558 12.7944444 134.519558 10.9025 123.481496 10.9025 123.481496 3.11694444 135.284573 3.11694444 135.284573 1.225 121.364046 1.225 121.364046 23.6561111 135.284573 23.6561111 135.284573 21.7641667 123.481496 21.7641667"></polygon>
                        <path d="M78.3866382,1.225 L76.2145442,1.225 L76.2145442,14.9722222 C76.2145442,20.1852778 73.9058405,22.0363889 70.1217521,22.0363889 C66.70651,22.0363889 63.9743162,20.1852778 63.9743162,14.9858333 L63.9743162,1.225 L61.7885613,1.225 L61.7885613,15.19 C61.7885613,21.4647222 65.2994302,23.9283333 70.0534473,23.9283333 C75.1080057,23.9283333 78.3866382,21.3422222 78.3866382,14.945 L78.3866382,1.225 Z" id="Path" fill-rule="nonzero"></path>
                        <polygon id="Path" fill-rule="nonzero" points="109.492664 3.11694444 116.77396 3.11694444 116.77396 1.225 100.066595 1.225 100.066595 3.11694444 107.334231 3.11694444 107.334231 23.6561111 109.492664 23.6561111"></polygon>
                        <path d="M93.0311966,5.34916667 L90.8317806,7.28306304e-14 L89.5886325,3.22583333 L89.5886325,3.22583333 C89.5886325,3.22583333 89.5886325,3.36194444 89.5066667,3.44361111 L88.7962963,5.36277778 C86.760812,10.4941667 81.965812,22.4855556 81.4740171,23.9419444 L83.6597721,23.9419444 L86.0641026,17.7625 L86.5422365,16.5102778 L95.3535613,16.5102778 C95.5448148,17.0547222 95.7633903,17.5991667 95.8726781,17.8713889 L95.9683048,18.1163889 L98.2770085,23.9011111 L100.626695,23.9011111 L93.0311966,5.34916667 Z M90.8044587,4.98166667 L90.8044587,4.98166667 C91.2416097,6.34277778 92.430114,9.20111111 94.574886,14.5775 L87.2526068,14.5775 C88.9875499,10.0041667 90.244359,6.80555556 90.8044587,4.98166667 Z" id="Shape" fill-rule="nonzero"></path>
                        <path d="M50.3953134,5.34916667 L48.1822365,7.28306304e-14 L46.9390883,3.22583333 L46.9390883,3.22583333 C46.9072774,3.2966692 46.879903,3.36940119 46.8571225,3.44361111 L46.1194302,5.36277778 C44.1112678,10.4941667 39.3709117,22.4855556 38.8244729,23.9419444 L40.982906,23.9419444 L43.3872365,17.7625 L43.8517094,16.5102778 L52.6766952,16.5102778 L53.2094729,17.8713889 C53.2094729,18.0075 53.2914387,18.1027778 53.3050997,18.1163889 L55.6138034,23.9011111 L57.9498291,23.9011111 L50.3953134,5.34916667 Z M48.1685755,4.98166667 L48.1685755,4.98166667 C48.6057265,6.34277778 49.7942308,9.20111111 51.9253419,14.5775 L44.6030627,14.5775 C46.3516667,10.0041667 47.6084758,6.80555556 48.1685755,4.98166667 Z" id="Shape" fill-rule="nonzero"></path>
                    </g>
                </g>
                <text id="class" font-family="Didot-Italic, Didot" font-size="40" font-style="italic" font-weight="normal">
                    <tspan x="142" y="38">class</tspan>
                </text>
            </g>
        </g>
    </g>
</svg>